<mxfile host="app.diagrams.net" modified="2024-06-03T16:09:46.897Z" agent="Mozilla/5.0 (X11; Linux x86_64) AppleWebKit/537.36 (KHTML, like Gecko) Chrome/124.0.0.0 Safari/537.36" etag="cD44J7QusPW_xZNKpFpN" version="24.4.13" type="device">
  <diagram name="Page-1" id="TRyOmgv_27SZuB7K4pEi">
    <mxGraphModel dx="2070" dy="2218" grid="1" gridSize="10" guides="1" tooltips="1" connect="1" arrows="1" fold="1" page="1" pageScale="1" pageWidth="850" pageHeight="1100" math="0" shadow="0">
      <root>
        <mxCell id="0" />
        <mxCell id="1" parent="0" />
        <mxCell id="xshZq3ixcSDLhPFOoDoP-115" value="RAI Agent Node" style="rounded=0;whiteSpace=wrap;html=1;verticalAlign=top;fillColor=#f5f5f5;fontColor=#333333;strokeColor=#666666;" parent="1" vertex="1">
          <mxGeometry x="380" y="-110" width="460" height="460" as="geometry" />
        </mxCell>
        <mxCell id="fdFziRwKy25bkzZfwBza-22" value="Planned RAI ROS2 Nodes&amp;nbsp;" style="rounded=0;whiteSpace=wrap;html=1;dashed=1;fillColor=none;verticalAlign=top;" parent="1" vertex="1">
          <mxGeometry x="810" y="-360" width="590" height="1190" as="geometry" />
        </mxCell>
        <mxCell id="xshZq3ixcSDLhPFOoDoP-95" value="Example Tools / APIs&amp;nbsp;" style="rounded=0;whiteSpace=wrap;html=1;verticalAlign=top;fillColor=#f5f5f5;fontColor=#333333;strokeColor=#666666;" parent="1" vertex="1">
          <mxGeometry x="160" y="-220" width="160" height="480" as="geometry" />
        </mxCell>
        <mxCell id="xshZq3ixcSDLhPFOoDoP-45" style="edgeStyle=orthogonalEdgeStyle;rounded=0;orthogonalLoop=1;jettySize=auto;html=1;entryX=0.5;entryY=0;entryDx=0;entryDy=0;" parent="1" source="xshZq3ixcSDLhPFOoDoP-1" target="xshZq3ixcSDLhPFOoDoP-46" edge="1">
          <mxGeometry relative="1" as="geometry">
            <mxPoint x="620.01" y="149.97" as="targetPoint" />
          </mxGeometry>
        </mxCell>
        <mxCell id="xshZq3ixcSDLhPFOoDoP-1" value="LLM Agent&lt;br&gt;Node" style="rounded=0;whiteSpace=wrap;html=1;" parent="1" vertex="1">
          <mxGeometry x="560.01" y="59.97" width="120" height="60" as="geometry" />
        </mxCell>
        <mxCell id="xshZq3ixcSDLhPFOoDoP-57" style="edgeStyle=orthogonalEdgeStyle;rounded=0;orthogonalLoop=1;jettySize=auto;html=1;" parent="1" source="xshZq3ixcSDLhPFOoDoP-8" target="xshZq3ixcSDLhPFOoDoP-50" edge="1">
          <mxGeometry relative="1" as="geometry" />
        </mxCell>
        <mxCell id="xshZq3ixcSDLhPFOoDoP-8" value="Transcriber" style="rounded=0;whiteSpace=wrap;html=1;" parent="1" vertex="1">
          <mxGeometry x="400" y="-190" width="120" height="60" as="geometry" />
        </mxCell>
        <mxCell id="xshZq3ixcSDLhPFOoDoP-9" value="OpenAI Whisper" style="rounded=0;whiteSpace=wrap;html=1;" parent="1" vertex="1">
          <mxGeometry x="180" y="-190" width="120" height="60" as="geometry" />
        </mxCell>
        <mxCell id="xshZq3ixcSDLhPFOoDoP-12" value="GPT4o" style="rounded=0;whiteSpace=wrap;html=1;" parent="1" vertex="1">
          <mxGeometry x="180" y="-40" width="120" height="60" as="geometry" />
        </mxCell>
        <mxCell id="xshZq3ixcSDLhPFOoDoP-13" value="Claude" style="rounded=0;whiteSpace=wrap;html=1;" parent="1" vertex="1">
          <mxGeometry x="180" y="30" width="120" height="60" as="geometry" />
        </mxCell>
        <mxCell id="xshZq3ixcSDLhPFOoDoP-14" value="Ollama" style="rounded=0;whiteSpace=wrap;html=1;" parent="1" vertex="1">
          <mxGeometry x="180" y="100" width="120" height="60" as="geometry" />
        </mxCell>
        <mxCell id="xshZq3ixcSDLhPFOoDoP-48" style="edgeStyle=orthogonalEdgeStyle;rounded=0;orthogonalLoop=1;jettySize=auto;html=1;exitX=0.5;exitY=1;exitDx=0;exitDy=0;" parent="1" source="xshZq3ixcSDLhPFOoDoP-46" edge="1">
          <mxGeometry relative="1" as="geometry">
            <mxPoint x="620.01" y="259.97" as="targetPoint" />
          </mxGeometry>
        </mxCell>
        <mxCell id="xshZq3ixcSDLhPFOoDoP-64" style="edgeStyle=orthogonalEdgeStyle;rounded=0;orthogonalLoop=1;jettySize=auto;html=1;exitX=1;exitY=0.5;exitDx=0;exitDy=0;entryX=-0.019;entryY=0.219;entryDx=0;entryDy=0;entryPerimeter=0;" parent="1" source="xshZq3ixcSDLhPFOoDoP-46" target="xshZq3ixcSDLhPFOoDoP-5" edge="1">
          <mxGeometry relative="1" as="geometry" />
        </mxCell>
        <mxCell id="xshZq3ixcSDLhPFOoDoP-46" value="Agent Loop" style="ellipse;whiteSpace=wrap;html=1;" parent="1" vertex="1">
          <mxGeometry x="560.01" y="160" width="120" height="80" as="geometry" />
        </mxCell>
        <mxCell id="xshZq3ixcSDLhPFOoDoP-54" style="edgeStyle=orthogonalEdgeStyle;rounded=0;orthogonalLoop=1;jettySize=auto;html=1;entryX=1;entryY=0.5;entryDx=0;entryDy=0;" parent="1" source="xshZq3ixcSDLhPFOoDoP-47" target="xshZq3ixcSDLhPFOoDoP-52" edge="1">
          <mxGeometry relative="1" as="geometry" />
        </mxCell>
        <mxCell id="xshZq3ixcSDLhPFOoDoP-118" style="edgeStyle=orthogonalEdgeStyle;rounded=0;orthogonalLoop=1;jettySize=auto;html=1;entryX=0.5;entryY=0;entryDx=0;entryDy=0;" parent="1" source="xshZq3ixcSDLhPFOoDoP-47" target="xshZq3ixcSDLhPFOoDoP-46" edge="1">
          <mxGeometry relative="1" as="geometry">
            <Array as="points">
              <mxPoint x="700" y="300" />
              <mxPoint x="700" y="140" />
              <mxPoint x="620" y="140" />
            </Array>
          </mxGeometry>
        </mxCell>
        <mxCell id="xshZq3ixcSDLhPFOoDoP-47" value="task completed" style="rhombus;whiteSpace=wrap;html=1;" parent="1" vertex="1">
          <mxGeometry x="560.01" y="260" width="120" height="80" as="geometry" />
        </mxCell>
        <mxCell id="xshZq3ixcSDLhPFOoDoP-71" style="edgeStyle=orthogonalEdgeStyle;rounded=0;orthogonalLoop=1;jettySize=auto;html=1;entryX=0.5;entryY=0;entryDx=0;entryDy=0;" parent="1" source="xshZq3ixcSDLhPFOoDoP-49" target="xshZq3ixcSDLhPFOoDoP-8" edge="1">
          <mxGeometry relative="1" as="geometry" />
        </mxCell>
        <mxCell id="xshZq3ixcSDLhPFOoDoP-72" value="speaks to the robot" style="edgeLabel;html=1;align=center;verticalAlign=middle;resizable=0;points=[];fontSize=13;" parent="xshZq3ixcSDLhPFOoDoP-71" vertex="1" connectable="0">
          <mxGeometry x="-0.2923" y="-4" relative="1" as="geometry">
            <mxPoint as="offset" />
          </mxGeometry>
        </mxCell>
        <mxCell id="xshZq3ixcSDLhPFOoDoP-73" style="edgeStyle=orthogonalEdgeStyle;rounded=0;orthogonalLoop=1;jettySize=auto;html=1;exitX=1;exitY=0.75;exitDx=0;exitDy=0;entryX=0;entryY=0.5;entryDx=0;entryDy=0;" parent="1" source="xshZq3ixcSDLhPFOoDoP-49" target="xshZq3ixcSDLhPFOoDoP-50" edge="1">
          <mxGeometry relative="1" as="geometry">
            <Array as="points">
              <mxPoint x="130" y="-285" />
              <mxPoint x="130" y="-260" />
              <mxPoint x="350" y="-260" />
              <mxPoint x="350" y="-60" />
            </Array>
          </mxGeometry>
        </mxCell>
        <mxCell id="xshZq3ixcSDLhPFOoDoP-74" value="writes to the robot" style="edgeLabel;html=1;align=center;verticalAlign=middle;resizable=0;points=[];fontSize=13;" parent="xshZq3ixcSDLhPFOoDoP-73" vertex="1" connectable="0">
          <mxGeometry x="0.3116" y="1" relative="1" as="geometry">
            <mxPoint x="-81" y="-73" as="offset" />
          </mxGeometry>
        </mxCell>
        <mxCell id="xshZq3ixcSDLhPFOoDoP-49" value="" style="shape=actor;whiteSpace=wrap;html=1;" parent="1" vertex="1">
          <mxGeometry x="70" y="-330" width="40" height="60" as="geometry" />
        </mxCell>
        <mxCell id="xshZq3ixcSDLhPFOoDoP-56" style="edgeStyle=orthogonalEdgeStyle;rounded=0;orthogonalLoop=1;jettySize=auto;html=1;entryX=0.5;entryY=0;entryDx=0;entryDy=0;" parent="1" source="xshZq3ixcSDLhPFOoDoP-50" target="xshZq3ixcSDLhPFOoDoP-51" edge="1">
          <mxGeometry relative="1" as="geometry" />
        </mxCell>
        <mxCell id="xshZq3ixcSDLhPFOoDoP-50" value="Categorizer" style="rounded=0;whiteSpace=wrap;html=1;" parent="1" vertex="1">
          <mxGeometry x="400" y="-90" width="120" height="60" as="geometry" />
        </mxCell>
        <mxCell id="xshZq3ixcSDLhPFOoDoP-55" style="edgeStyle=orthogonalEdgeStyle;rounded=0;orthogonalLoop=1;jettySize=auto;html=1;entryX=0;entryY=0.5;entryDx=0;entryDy=0;" parent="1" source="xshZq3ixcSDLhPFOoDoP-51" target="xshZq3ixcSDLhPFOoDoP-1" edge="1">
          <mxGeometry relative="1" as="geometry" />
        </mxCell>
        <mxCell id="xshZq3ixcSDLhPFOoDoP-59" style="edgeStyle=orthogonalEdgeStyle;rounded=0;orthogonalLoop=1;jettySize=auto;html=1;entryX=0.5;entryY=0;entryDx=0;entryDy=0;" parent="1" source="xshZq3ixcSDLhPFOoDoP-51" target="xshZq3ixcSDLhPFOoDoP-52" edge="1">
          <mxGeometry relative="1" as="geometry" />
        </mxCell>
        <mxCell id="xshZq3ixcSDLhPFOoDoP-51" value="is task" style="rhombus;whiteSpace=wrap;html=1;" parent="1" vertex="1">
          <mxGeometry x="400" y="49.97" width="120" height="80" as="geometry" />
        </mxCell>
        <mxCell id="xshZq3ixcSDLhPFOoDoP-75" style="edgeStyle=orthogonalEdgeStyle;rounded=0;orthogonalLoop=1;jettySize=auto;html=1;exitX=0;exitY=0.5;exitDx=0;exitDy=0;" parent="1" source="xshZq3ixcSDLhPFOoDoP-52" edge="1">
          <mxGeometry relative="1" as="geometry">
            <mxPoint x="100" y="-270" as="targetPoint" />
            <Array as="points">
              <mxPoint x="100" y="300" />
            </Array>
          </mxGeometry>
        </mxCell>
        <mxCell id="xshZq3ixcSDLhPFOoDoP-76" value="Text response" style="edgeLabel;html=1;align=center;verticalAlign=middle;resizable=0;points=[];fontSize=13;" parent="xshZq3ixcSDLhPFOoDoP-75" vertex="1" connectable="0">
          <mxGeometry x="-0.0985" y="4" relative="1" as="geometry">
            <mxPoint x="134" y="93" as="offset" />
          </mxGeometry>
        </mxCell>
        <mxCell id="xshZq3ixcSDLhPFOoDoP-77" style="edgeStyle=orthogonalEdgeStyle;rounded=0;orthogonalLoop=1;jettySize=auto;html=1;" parent="1" source="xshZq3ixcSDLhPFOoDoP-52" target="xshZq3ixcSDLhPFOoDoP-53" edge="1">
          <mxGeometry relative="1" as="geometry" />
        </mxCell>
        <mxCell id="xshZq3ixcSDLhPFOoDoP-52" value="Chat model" style="rounded=0;whiteSpace=wrap;html=1;" parent="1" vertex="1">
          <mxGeometry x="400" y="270" width="120" height="60" as="geometry" />
        </mxCell>
        <mxCell id="xshZq3ixcSDLhPFOoDoP-78" style="edgeStyle=orthogonalEdgeStyle;rounded=0;orthogonalLoop=1;jettySize=auto;html=1;exitX=0;exitY=0.5;exitDx=0;exitDy=0;entryX=0.25;entryY=1;entryDx=0;entryDy=0;" parent="1" source="xshZq3ixcSDLhPFOoDoP-53" target="xshZq3ixcSDLhPFOoDoP-49" edge="1">
          <mxGeometry relative="1" as="geometry">
            <Array as="points">
              <mxPoint x="80" y="400" />
            </Array>
          </mxGeometry>
        </mxCell>
        <mxCell id="xshZq3ixcSDLhPFOoDoP-79" value="Voice response" style="edgeLabel;html=1;align=center;verticalAlign=middle;resizable=0;points=[];fontSize=13;" parent="xshZq3ixcSDLhPFOoDoP-78" vertex="1" connectable="0">
          <mxGeometry x="-0.2447" y="-4" relative="1" as="geometry">
            <mxPoint x="146" y="54" as="offset" />
          </mxGeometry>
        </mxCell>
        <mxCell id="xshZq3ixcSDLhPFOoDoP-53" value="TTS" style="rounded=0;whiteSpace=wrap;html=1;" parent="1" vertex="1">
          <mxGeometry x="400" y="370" width="120" height="60" as="geometry" />
        </mxCell>
        <mxCell id="xshZq3ixcSDLhPFOoDoP-65" style="edgeStyle=orthogonalEdgeStyle;rounded=0;orthogonalLoop=1;jettySize=auto;html=1;entryX=-0.004;entryY=0.377;entryDx=0;entryDy=0;entryPerimeter=0;startArrow=classic;startFill=1;" parent="1" target="xshZq3ixcSDLhPFOoDoP-18" edge="1">
          <mxGeometry relative="1" as="geometry">
            <mxPoint x="680" y="200" as="sourcePoint" />
          </mxGeometry>
        </mxCell>
        <mxCell id="xshZq3ixcSDLhPFOoDoP-66" value="ROS2 tool call" style="edgeLabel;html=1;align=center;verticalAlign=middle;resizable=0;points=[];fontSize=13;" parent="xshZq3ixcSDLhPFOoDoP-65" vertex="1" connectable="0">
          <mxGeometry x="-0.2422" y="-4" relative="1" as="geometry">
            <mxPoint x="41" y="179" as="offset" />
          </mxGeometry>
        </mxCell>
        <mxCell id="fdFziRwKy25bkzZfwBza-11" value="tool output" style="edgeLabel;html=1;align=center;verticalAlign=middle;resizable=0;points=[];fontSize=13;" parent="xshZq3ixcSDLhPFOoDoP-65" vertex="1" connectable="0">
          <mxGeometry x="-0.8922" y="-1" relative="1" as="geometry">
            <mxPoint x="20" y="-11" as="offset" />
          </mxGeometry>
        </mxCell>
        <mxCell id="xshZq3ixcSDLhPFOoDoP-69" value="" style="endArrow=none;dashed=1;html=1;dashPattern=1 3;strokeWidth=2;rounded=0;" parent="1" edge="1">
          <mxGeometry width="50" height="50" relative="1" as="geometry">
            <mxPoint x="120" y="-120" as="sourcePoint" />
            <mxPoint x="600" y="-120" as="targetPoint" />
          </mxGeometry>
        </mxCell>
        <mxCell id="xshZq3ixcSDLhPFOoDoP-70" value="" style="endArrow=none;dashed=1;html=1;dashPattern=1 3;strokeWidth=2;rounded=0;" parent="1" edge="1">
          <mxGeometry width="50" height="50" relative="1" as="geometry">
            <mxPoint x="120" y="-230" as="sourcePoint" />
            <mxPoint x="590" y="-230" as="targetPoint" />
          </mxGeometry>
        </mxCell>
        <mxCell id="fdFziRwKy25bkzZfwBza-12" value="ROS2 tool call" style="edgeLabel;html=1;align=center;verticalAlign=middle;resizable=0;points=[];rotation=0;fontSize=13;" parent="1" vertex="1" connectable="0">
          <mxGeometry x="820.004285714286" y="-159.99897883918356" as="geometry" />
        </mxCell>
        <mxCell id="fdFziRwKy25bkzZfwBza-15" value="" style="group" parent="1" vertex="1" connectable="0">
          <mxGeometry x="870" y="-310" width="1120" height="1130" as="geometry" />
        </mxCell>
        <mxCell id="xshZq3ixcSDLhPFOoDoP-18" value="Classical ROS2 Nodes" style="rounded=0;whiteSpace=wrap;html=1;verticalAlign=top;" parent="fdFziRwKy25bkzZfwBza-15" vertex="1">
          <mxGeometry width="260" height="420" as="geometry" />
        </mxCell>
        <mxCell id="xshZq3ixcSDLhPFOoDoP-26" value="ros2_controllers" style="rounded=0;whiteSpace=wrap;html=1;" parent="fdFziRwKy25bkzZfwBza-15" vertex="1">
          <mxGeometry x="20" y="279.97" width="220" height="40" as="geometry" />
        </mxCell>
        <mxCell id="xshZq3ixcSDLhPFOoDoP-134" value="MoveIt2" style="rounded=0;whiteSpace=wrap;html=1;" parent="fdFziRwKy25bkzZfwBza-15" vertex="1">
          <mxGeometry x="20" y="199.97" width="220.63" height="40" as="geometry" />
        </mxCell>
        <mxCell id="xshZq3ixcSDLhPFOoDoP-137" value="nav2" style="rounded=0;whiteSpace=wrap;html=1;" parent="fdFziRwKy25bkzZfwBza-15" vertex="1">
          <mxGeometry x="20" y="359.97" width="220" height="40" as="geometry" />
        </mxCell>
        <mxCell id="fdFziRwKy25bkzZfwBza-2" value="describe available ros services, topics and actions" style="rounded=0;whiteSpace=wrap;html=1;" parent="fdFziRwKy25bkzZfwBza-15" vertex="1">
          <mxGeometry x="20" y="40" width="220" height="40" as="geometry" />
        </mxCell>
        <mxCell id="fdFziRwKy25bkzZfwBza-14" value="documentation node" style="rounded=0;whiteSpace=wrap;html=1;" parent="fdFziRwKy25bkzZfwBza-15" vertex="1">
          <mxGeometry x="19.370000000000005" y="120" width="220.63" height="40" as="geometry" />
        </mxCell>
        <mxCell id="fdFziRwKy25bkzZfwBza-17" value="" style="group" parent="1" vertex="1" connectable="0">
          <mxGeometry x="870" y="140" width="580" height="660" as="geometry" />
        </mxCell>
        <mxCell id="xshZq3ixcSDLhPFOoDoP-39" value="Example Models" style="rounded=0;whiteSpace=wrap;html=1;verticalAlign=top;fillColor=#f5f5f5;fontColor=#333333;strokeColor=#666666;" parent="fdFziRwKy25bkzZfwBza-17" vertex="1">
          <mxGeometry x="290" width="200" height="660" as="geometry" />
        </mxCell>
        <mxCell id="xshZq3ixcSDLhPFOoDoP-5" value="AI ROS2 Nodes" style="rounded=0;whiteSpace=wrap;html=1;verticalAlign=top;" parent="fdFziRwKy25bkzZfwBza-17" vertex="1">
          <mxGeometry width="260" height="660" as="geometry" />
        </mxCell>
        <mxCell id="xshZq3ixcSDLhPFOoDoP-2" value="Open-Set &lt;br&gt;Detection/ Segmentation&lt;br&gt;Node" style="rounded=0;whiteSpace=wrap;html=1;" parent="fdFziRwKy25bkzZfwBza-17" vertex="1">
          <mxGeometry x="70" y="70" width="120" height="60" as="geometry" />
        </mxCell>
        <mxCell id="xshZq3ixcSDLhPFOoDoP-3" value="Visual Question Answering Node" style="rounded=0;whiteSpace=wrap;html=1;" parent="fdFziRwKy25bkzZfwBza-17" vertex="1">
          <mxGeometry x="70" y="150" width="120" height="60" as="geometry" />
        </mxCell>
        <mxCell id="xshZq3ixcSDLhPFOoDoP-7" value="Environment Exploration Node" style="rounded=0;whiteSpace=wrap;html=1;" parent="fdFziRwKy25bkzZfwBza-17" vertex="1">
          <mxGeometry x="70" y="230" width="120" height="60" as="geometry" />
        </mxCell>
        <mxCell id="xshZq3ixcSDLhPFOoDoP-11" value="Grounded&lt;span style=&quot;background-color: initial;&quot;&gt;&amp;nbsp;DINO/SAM&lt;/span&gt;" style="rounded=0;whiteSpace=wrap;html=1;" parent="fdFziRwKy25bkzZfwBza-17" vertex="1">
          <mxGeometry x="325" y="70" width="130" height="60" as="geometry" />
        </mxCell>
        <mxCell id="xshZq3ixcSDLhPFOoDoP-15" value="visualnav-transformer&lt;br&gt;(NoMaD)" style="rounded=0;whiteSpace=wrap;html=1;" parent="fdFziRwKy25bkzZfwBza-17" vertex="1">
          <mxGeometry x="330" y="270" width="120" height="60" as="geometry" />
        </mxCell>
        <mxCell id="xshZq3ixcSDLhPFOoDoP-16" value="Image Query Navigation Node" style="rounded=0;whiteSpace=wrap;html=1;" parent="fdFziRwKy25bkzZfwBza-17" vertex="1">
          <mxGeometry x="70" y="310" width="120" height="60" as="geometry" />
        </mxCell>
        <mxCell id="xshZq3ixcSDLhPFOoDoP-29" value="Abnormal Situation Detection" style="rounded=0;whiteSpace=wrap;html=1;" parent="fdFziRwKy25bkzZfwBza-17" vertex="1">
          <mxGeometry x="70" y="390" width="120" height="60" as="geometry" />
        </mxCell>
        <mxCell id="xshZq3ixcSDLhPFOoDoP-32" value="BLIP" style="rounded=0;whiteSpace=wrap;html=1;" parent="fdFziRwKy25bkzZfwBza-17" vertex="1">
          <mxGeometry x="305" y="150" width="75" height="60" as="geometry" />
        </mxCell>
        <mxCell id="xshZq3ixcSDLhPFOoDoP-121" value="" style="endArrow=none;dashed=1;html=1;dashPattern=1 3;strokeWidth=2;rounded=0;" parent="fdFziRwKy25bkzZfwBza-17" edge="1">
          <mxGeometry width="50" height="50" relative="1" as="geometry">
            <mxPoint x="-10" y="140" as="sourcePoint" />
            <mxPoint x="510" y="140" as="targetPoint" />
          </mxGeometry>
        </mxCell>
        <mxCell id="xshZq3ixcSDLhPFOoDoP-122" value="" style="endArrow=none;dashed=1;html=1;dashPattern=1 3;strokeWidth=2;rounded=0;" parent="fdFziRwKy25bkzZfwBza-17" edge="1">
          <mxGeometry width="50" height="50" relative="1" as="geometry">
            <mxPoint x="-10" y="380" as="sourcePoint" />
            <mxPoint x="510" y="380" as="targetPoint" />
          </mxGeometry>
        </mxCell>
        <mxCell id="xshZq3ixcSDLhPFOoDoP-123" value="Observation Gathering" style="rounded=0;whiteSpace=wrap;html=1;" parent="fdFziRwKy25bkzZfwBza-17" vertex="1">
          <mxGeometry x="70" y="470" width="120" height="60" as="geometry" />
        </mxCell>
        <mxCell id="xshZq3ixcSDLhPFOoDoP-124" value="VLM" style="rounded=0;whiteSpace=wrap;html=1;" parent="fdFziRwKy25bkzZfwBza-17" vertex="1">
          <mxGeometry x="330" y="430" width="120" height="60" as="geometry" />
        </mxCell>
        <mxCell id="xshZq3ixcSDLhPFOoDoP-126" value="" style="endArrow=none;dashed=1;html=1;dashPattern=1 3;strokeWidth=2;rounded=0;" parent="fdFziRwKy25bkzZfwBza-17" edge="1">
          <mxGeometry width="50" height="50" relative="1" as="geometry">
            <mxPoint x="-10" y="550" as="sourcePoint" />
            <mxPoint x="510" y="550" as="targetPoint" />
          </mxGeometry>
        </mxCell>
        <mxCell id="xshZq3ixcSDLhPFOoDoP-127" value="Manipulation Node" style="rounded=0;whiteSpace=wrap;html=1;" parent="fdFziRwKy25bkzZfwBza-17" vertex="1">
          <mxGeometry x="70" y="570" width="120" height="60" as="geometry" />
        </mxCell>
        <mxCell id="xshZq3ixcSDLhPFOoDoP-128" value="RT-X / RT-1 / RT-2" style="rounded=0;whiteSpace=wrap;html=1;" parent="fdFziRwKy25bkzZfwBza-17" vertex="1">
          <mxGeometry x="330" y="570" width="120" height="60" as="geometry" />
        </mxCell>
        <mxCell id="xshZq3ixcSDLhPFOoDoP-129" value="" style="endArrow=none;dashed=1;html=1;dashPattern=1 3;strokeWidth=2;rounded=0;" parent="fdFziRwKy25bkzZfwBza-17" edge="1">
          <mxGeometry width="50" height="50" relative="1" as="geometry">
            <mxPoint x="-10" y="220" as="sourcePoint" />
            <mxPoint x="510" y="220" as="targetPoint" />
          </mxGeometry>
        </mxCell>
        <mxCell id="xshZq3ixcSDLhPFOoDoP-136" value="VLM" style="rounded=0;whiteSpace=wrap;html=1;" parent="fdFziRwKy25bkzZfwBza-17" vertex="1">
          <mxGeometry x="390" y="150" width="75" height="60" as="geometry" />
        </mxCell>
      </root>
    </mxGraphModel>
  </diagram>
</mxfile>
